<svg xmlns="http://www.w3.org/2000/svg" width="512" height="512" style="overflow: visible;" viewBox="0 0 512 512"
  data-bbox="82.7123872790051 198.61419677734375 364.58442421410257 122.7716064453125">.st0{fill:#FF9071;}
  .st1{fill:#00FF00;}<path d="M272.5 495.7L452 392.1c13.5-7.8 21.7-22.1 21.7-37.7V147.1c0-15.5-8.3-29.9-21.7-37.7L272.5 5.8
	C259-2 242.5-2 229 5.8L49.5 109.4c-13.5 7.8-21.7 22.1-21.7 37.7v207.3c0 15.5 8.3 29.9 21.7 37.7L229 495.7
	C242.5 503.5 259 503.5 272.5 495.7z"
    transform="matrix(0.12016447633504868, 0, 0, 0.12016447633504868, 106.2937240600586, 229.86875915527344)"
    fill="rgba(224, 233, 250, 1)" data-uid="o_f1e1ceedi_6"></path>Fichier 71<path text="Sandbox"
    fill="rgba(51, 63, 81, 1)" space="preserve" text-anchor="middle" offset="0.5" font-scale="contain" font-size="48"
    font-family="Manrope"
    transform="matrix(1.1962429285049438, 0, 0, 1.1962429285049438, 326.2011413574219, 280.6416320800781)"
    data-fl-textpath="" font-weight="700" font-style="normal" letter-spacing="0"
    path="M-101.71200000000002 0C-50.85600000000001 0 50.85600000000002 0 101.71200000000002 0" data-uid="o_f1e1ceedi_8"
    d="M-85.56199889405823 0.72L-85.56199889405823 0.72Q-89.35199889405824 0.72 -92.39199889405825-0.6Q-95.42199889405823-1.92 -97.38199889405824-4.38Q-99.33199889405824-6.84 -99.86199889405825-10.22L-99.86199889405825-10.22L-93.86199889405825-11.14Q-93.09199889405824-8.06 -90.71199889405824-6.38Q-88.32199889405824-4.7 -85.20199889405824-4.7L-85.20199889405824-4.7Q-83.35199889405824-4.7 -81.72199889405825-5.28Q-80.09199889405824-5.86 -79.07199889405824-6.96Q-78.05199889405824-8.06 -78.05199889405824-9.67L-78.05199889405824-9.67Q-78.05199889405824-10.39 -78.29199889405824-11Q-78.53199889405823-11.62 -78.99199889405824-12.1Q-79.46199889405824-12.58 -80.19199889405824-12.97Q-80.93199889405824-13.37 -81.89199889405825-13.66L-81.89199889405825-13.66L-90.81199889405823-16.3Q-91.97199889405825-16.63 -93.30199889405824-17.2Q-94.63199889405824-17.76 -95.82199889405824-18.76Q-97.01199889405824-19.75 -97.76199889405824-21.3Q-98.52199889405824-22.85 -98.52199889405824-25.13L-98.52199889405824-25.13Q-98.52199889405824-28.46 -96.83199889405824-30.73Q-95.13199889405824-33 -92.27199889405824-34.13Q-89.40199889405824-35.26 -85.89199889405825-35.23L-85.89199889405825-35.23Q-82.34199889405824-35.21 -79.56199889405823-34.02Q-76.77199889405824-32.83 -74.90199889405824-30.58Q-73.03199889405823-28.32 -72.26199889405824-25.13L-72.26199889405824-25.13L-78.48199889405824-24.05Q-78.86199889405825-25.87 -79.95199889405824-27.16Q-81.05199889405824-28.44 -82.62199889405824-29.11Q-84.19199889405824-29.78 -85.97199889405825-29.83L-85.97199889405825-29.83Q-87.69199889405824-29.86 -89.17199889405825-29.32Q-90.65199889405824-28.78 -91.55199889405824-27.77Q-92.45199889405824-26.76 -92.45199889405824-25.42L-92.45199889405824-25.42Q-92.45199889405824-24.14 -91.68199889405824-23.34Q-90.91199889405824-22.54 -89.77199889405824-22.07Q-88.63199889405824-21.6 -87.45199889405824-21.29L-87.45199889405824-21.29L-81.26199889405824-19.56Q-79.99199889405824-19.22 -78.41199889405824-18.65Q-76.82199889405824-18.07 -75.36199889405825-17.04Q-73.89199889405825-16.01 -72.95199889405824-14.33Q-72.00199889405823-12.65 -72.00199889405823-10.06L-72.00199889405823-10.06Q-72.00199889405823-7.37 -73.11199889405825-5.34Q-74.23199889405824-3.31 -76.13199889405824-1.97Q-78.02199889405824-0.62 -80.46199889405824 0.05Q-82.89199889405825 0.72 -85.56199889405823 0.72ZM-59.54199502654208 0.72L-59.54199502654208 0.72Q-62.351995026542085 0.72 -64.29199502654208-0.35Q-66.24199502654209-1.42 -67.23199502654208-3.19Q-68.23199502654208-4.97 -68.23199502654208-7.1L-68.23199502654208-7.1Q-68.23199502654208-8.98 -67.61199502654208-10.48Q-66.98199502654208-11.98 -65.69199502654209-13.07Q-64.39199502654208-14.16 -62.33199502654208-14.86L-62.33199502654208-14.86Q-60.77199502654208-15.36 -58.67199502654208-15.77Q-56.57199502654208-16.18 -54.11199502654208-16.52Q-51.65199502654208-16.87 -48.961995026542084-17.28L-48.961995026542084-17.28L-51.021995026542086-16.1Q-51.00199502654208-18.79 -52.22199502654208-20.06Q-53.45199502654208-21.34 -56.351995026542085-21.34L-56.351995026542085-21.34Q-58.101995026542085-21.34 -59.73199502654208-20.52Q-61.37199502654208-19.7 -62.01199502654208-17.71L-62.01199502654208-17.71L-67.29199502654208-19.37Q-66.33199502654209-22.66 -63.631995026542086-24.65Q-60.93199502654208-26.64 -56.351995026542085-26.64L-56.351995026542085-26.64Q-52.89199502654208-26.64 -50.271995026542086-25.51Q-47.64199502654208-24.38 -46.37199502654208-21.82L-46.37199502654208-21.82Q-45.67199502654208-20.45 -45.53199502654208-19.02Q-45.381995026542086-17.59 -45.381995026542086-15.91L-45.381995026542086-15.91L-45.381995026542086 0L-50.45199502654208 0L-50.45199502654208-5.62L-49.61199502654208-4.7Q-51.36199502654208-1.9 -53.70199502654208-0.59Q-56.04199502654208 0.72 -59.54199502654208 0.72ZM-58.391995026542084-3.89L-58.391995026542084-3.89Q-56.42199502654208-3.89 -55.031995026542084-4.58Q-53.64199502654208-5.28 -52.81199502654208-6.29Q-51.98199502654208-7.3 -51.69199502654208-8.18L-51.69199502654208-8.18Q-51.241995026542085-9.29 -51.18199502654208-10.72Q-51.12199502654208-12.14 -51.12199502654208-13.03L-51.12199502654208-13.03L-49.34199502654208-12.5Q-51.961995026542084-12.1 -53.83199502654208-11.78Q-55.70199502654208-11.47 -57.05199502654208-11.2Q-58.391995026542084-10.92 -59.42199502654208-10.58L-59.42199502654208-10.58Q-60.43199502654208-10.22 -61.131995026542086-9.74Q-61.82199502654208-9.26 -62.19199502654208-8.64Q-62.57199502654208-8.02 -62.57199502654208-7.18L-62.57199502654208-7.18Q-62.57199502654208-6.22 -62.09199502654208-5.48Q-61.61199502654208-4.75 -60.68199502654208-4.32Q-59.76199502654208-3.89 -58.391995026542084-3.89ZM-15.363991222876656 0L-21.213991222876658 0L-21.213991222876658-12.48Q-21.213991222876658-13.7 -21.383991222876656-15.19Q-21.553991222876657-16.68 -22.163991222876657-18.06Q-22.773991222876656-19.44 -23.983991222876657-20.33Q-25.203991222876656-21.22 -27.263991222876655-21.22L-27.263991222876655-21.22Q-28.363991222876656-21.22 -29.443991222876654-20.86Q-30.523991222876656-20.5 -31.403991222876655-19.62Q-32.28399122287666-18.74 -32.80399122287666-17.22Q-33.333991222876655-15.7 -33.333991222876655-13.32L-33.333991222876655-13.32L-36.763991222876655-14.78Q-36.763991222876655-18.1 -35.483991222876654-20.78Q-34.20399122287665-23.47 -31.703991222876656-25.07Q-29.203991222876656-26.66 -25.563991222876655-26.66L-25.563991222876655-26.66Q-22.683991222876656-26.66 -20.803991222876657-25.7Q-18.933991222876656-24.74 -17.833991222876655-23.26Q-16.723991222876656-21.77 -16.203991222876656-20.09Q-15.673991222876658-18.41 -15.513991222876658-16.91Q-15.363991222876656-15.41 -15.363991222876656-14.47L-15.363991222876656-14.47L-15.363991222876656 0ZM-33.333991222876655 0L-39.193991222876654 0L-39.193991222876654-25.92L-34.03399122287666-25.92L-34.03399122287666-17.88L-33.333991222876655-17.88L-33.333991222876655 0ZM 0.8619984621819388 0.72L 0.8619984621819388 0.72Q-2.7080015378180615 0.72 -5.3780015378180615-1.08Q-8.038001537818062-2.88 -9.50800153781806-5.98Q-10.968001537818061-9.07 -10.968001537818061-12.96L-10.968001537818061-12.96Q-10.968001537818061-16.9 -9.48800153781806-19.98Q-8.018001537818062-23.06 -5.308001537818061-24.85Q-2.5880015378180605-26.64  1.0819984621819394-26.64L 1.0819984621819394-26.64Q 4.771998462181939-26.64  7.2819984621819405-24.85Q 9.791998462181938-23.06  11.09199846218194-19.97Q 12.381998462181938-16.87  12.381998462181938-12.96L 12.381998462181938-12.96Q 12.381998462181938-9.1  11.09199846218194-5.99Q 9.791998462181938-2.88  7.221998462181938-1.08Q 4.651998462181938 0.72  0.8619984621819388 0.72ZM 1.7519984621819393-4.46L 1.7519984621819393-4.46Q 4.081998462181938-4.46  5.511998462181937-5.53Q 6.931998462181939-6.6  7.591998462181939-8.52Q 8.25199846218194-10.44  8.25199846218194-12.96L 8.25199846218194-12.96Q 8.25199846218194-15.5  7.591998462181939-17.41Q 6.931998462181939-19.32  5.5419984621819385-20.39Q 4.151998462181938-21.46  1.9419984621819388-21.46L 1.9419984621819388-21.46Q-0.38800153781806124-21.46 -1.898001537818061-20.32Q-3.408001537818061-19.18 -4.1280015378180615-17.24Q-4.848001537818062-15.31 -4.848001537818062-12.96L-4.848001537818062-12.96Q-4.848001537818062-10.58 -4.138001537818061-8.65Q-3.4280015378180604-6.72 -1.9680015378180613-5.59Q-0.5080015378180605-4.46  1.7519984621819393-4.46ZM 13.37199846218194 0L 8.25199846218194 0L 8.25199846218194-18.19L 7.5319984621819405-18.19L 7.5319984621819405-34.56L 13.37199846218194-34.56L 13.37199846218194 0ZM 32.54800133035902 0.72L 32.54800133035902 0.72Q 28.74800133035902 0.72  26.188001330359022-1.08Q 23.61800133035902-2.88  22.31800133035902-5.99Q 21.02800133035902-9.1  21.02800133035902-12.96L 21.02800133035902-12.96Q 21.02800133035902-16.87  22.31800133035902-19.97Q 23.61800133035902-23.06  26.12800133035902-24.85Q 28.62800133035902-26.64  32.32800133035902-26.64L 32.32800133035902-26.64Q 35.99800133035902-26.64  38.69800133035902-24.85Q 41.39800133035902-23.06  42.88800133035902-19.98Q 44.37800133035902-16.9  44.37800133035902-12.96L 44.37800133035902-12.96Q 44.37800133035902-9.07  42.90800133035902-5.98Q 41.44800133035902-2.88  38.78800133035902-1.08Q 36.11800133035902 0.72  32.54800133035902 0.72ZM 25.148001330359023 0L 20.03800133035902 0L 20.03800133035902-34.56L 25.86800133035902-34.56L 25.86800133035902-18.19L 25.148001330359023-18.19L 25.148001330359023 0ZM 31.65800133035902-4.46L 31.65800133035902-4.46Q 33.90800133035902-4.46  35.37800133035902-5.59Q 36.83800133035902-6.72  37.54800133035902-8.65Q 38.25800133035902-10.58  38.25800133035902-12.96L 38.25800133035902-12.96Q 38.25800133035902-15.31  37.53800133035902-17.24Q 36.818001330359024-19.18  35.30800133035902-20.32Q 33.78800133035902-21.46  31.468001330359023-21.46L 31.468001330359023-21.46Q 29.258001330359022-21.46  27.86800133035902-20.39Q 26.468001330359023-19.32  25.80800133035902-17.41Q 25.148001330359023-15.5  25.148001330359023-12.96L 25.148001330359023-12.96Q 25.148001330359023-10.44  25.80800133035902-8.52Q 26.468001330359023-6.6  27.898001330359023-5.53Q 29.328001330359022-4.46  31.65800133035902-4.46ZM 61.10600046850028 0.72L 61.10600046850028 0.72Q 57.216000468500276 0.72  54.31600046850028-1.03Q 51.406000468500274-2.78  49.81600046850028-5.87Q 48.216000468500276-8.95  48.216000468500276-12.96L 48.216000468500276-12.96Q 48.216000468500276-17.04  49.84600046850027-20.11Q 51.476000468500274-23.18  54.38600046850027-24.91Q 57.286000468500276-26.64  61.10600046850028-26.64L 61.10600046850028-26.64Q 65.01600046850027-26.64  67.91600046850027-24.89Q 70.82600046850027-23.14  72.43600046850028-20.05Q 74.03600046850028-16.97  74.03600046850028-12.96L 74.03600046850028-12.96Q 74.03600046850028-8.93  72.41600046850027-5.84Q 70.79600046850027-2.76  67.89600046850028-1.02Q 64.99600046850027 0.72  61.10600046850028 0.72ZM 61.10600046850028-4.7L 61.10600046850028-4.7Q 64.55600046850027-4.7  66.23600046850028-7.01Q 67.91600046850027-9.31  67.91600046850027-12.96L 67.91600046850027-12.96Q 67.91600046850027-16.73  66.21600046850028-18.97Q 64.51600046850027-21.22  61.10600046850028-21.22L 61.10600046850028-21.22Q 58.77600046850027-21.22  57.27600046850027-20.17Q 55.77600046850027-19.13  55.05600046850027-17.27Q 54.33600046850027-15.41  54.33600046850027-12.96L 54.33600046850027-12.96Q 54.33600046850027-9.19  56.05600046850027-6.95Q 57.76600046850027-4.7  61.10600046850028-4.7ZM 82.41999300011153 0L 75.59999300011154 0L 85.07999300011153-13.1L 75.78999300011154-25.92L 82.60999300011153-25.92L 88.43999300011154-17.64L 94.17999300011154-25.92L 100.98999300011154-25.92L 91.69999300011153-13.1L 101.22999300011153 0L 94.41999300011153 0L 88.43999300011154-8.57L 82.41999300011153 0Z">
  </path>
  <path
    d="M50 10L15 30v40l35 20l34.99-19.994L85 69.99V30L50 10z M50 17.699L74.89 31.92l-6.732 3.848L50 25.397L31.846 35.771  l-6.738-3.851L50 17.699z M64.795 41.546v13.059L53.369 48.08V35.02L64.795 41.546z M46.631 35.02v13.057l-11.423 6.527V41.546  L46.631 35.02z M46.631 80.377L21.735 66.152v-28.46l6.734 3.848v20.761L46.631 72.68V80.377z M38.571 60.377l11.426-6.529  l11.429 6.529L50 66.904L38.571 60.377z M78.265 66.152L53.369 80.377V72.68L71.53 62.305V41.54l6.734-3.848V66.152z"
    transform="matrix(1.5346450805664062, 0, 0, 1.5346450805664062, 59.692710876464844, 183.2677459716797)"
    fill="#3f78e0" data-uid="o_f1e1ceedi_9"></path>
</svg>