<svg xmlns="http://www.w3.org/2000/svg" width="512" height="512" style="overflow: visible;" viewBox="0 0 512 512" data-bbox="82.7123872790051 198.61419677734375 364.58442421410257 122.7716064453125">.st0{fill:#FF9071;}
	.st1{fill:#00FF00;}<path d="M272.5 495.7L452 392.1c13.5-7.8 21.7-22.1 21.7-37.7V147.1c0-15.5-8.3-29.9-21.7-37.7L272.5 5.8
	C259-2 242.5-2 229 5.8L49.5 109.4c-13.5 7.8-21.7 22.1-21.7 37.7v207.3c0 15.5 8.3 29.9 21.7 37.7L229 495.7
	C242.5 503.5 259 503.5 272.5 495.7z" transform="matrix(0.12016447633504868, 0, 0, 0.12016447633504868, 106.2937240600586, 229.86875915527344)" fill="rgba(224, 233, 250, 1)" data-uid="o_f1e1f4l37_6"></path>Fichier 71<path text="Passi" fill="rgba(51, 63, 81, 1)" space="preserve" text-anchor="middle" offset="0.5" font-scale="contain" font-size="48" font-family="Manrope" transform="matrix(1.1962429285049438, 0, 0, 1.1962429285049438, 325.2997329067177, 280.6416340093614)" data-fl-textpath="" font-weight="700" font-style="normal" letter-spacing="0" path="M-101.71200000000002 0C-50.85600000000001 0 50.85600000000002 0 101.71200000000002 0" data-uid="o_f1e1f4l37_8" d="M-52.40799652099609 0L-58.187996520996094 0L-58.187996520996094-34.56L-43.90799652099609-34.56Q-43.40799652099609-34.56 -42.607996520996096-34.52Q-41.81799652099609-34.49 -41.147996520996095-34.37L-41.147996520996095-34.37Q-38.147996520996095-33.91 -36.187996520996094-32.38Q-34.23799652099609-30.84 -33.28799652099609-28.5Q-32.33799652099609-26.16 -32.33799652099609-23.3L-32.33799652099609-23.3Q-32.33799652099609-20.47 -33.297996520996094-18.13Q-34.257996520996095-15.79 -36.217996520996095-14.26Q-38.1679965209961-12.72 -41.147996520996095-12.26L-41.147996520996095-12.26Q-41.81799652099609-12.17 -42.62799652099609-12.12Q-43.42799652099609-12.07 -43.90799652099609-12.07L-43.90799652099609-12.07L-52.40799652099609-12.07L-52.40799652099609 0ZM-52.40799652099609-29.14L-52.40799652099609-17.47L-44.147996520996095-17.47Q-43.6679965209961-17.47 -43.06799652099609-17.52Q-42.467996520996095-17.57 -41.967996520996095-17.71L-41.967996520996095-17.71Q-40.5279965209961-18.07 -39.69799652099609-18.98Q-38.867996520996094-19.9 -38.51799652099609-21.05Q-38.1679965209961-22.2 -38.1679965209961-23.3L-38.1679965209961-23.3Q-38.1679965209961-24.41 -38.51799652099609-25.57Q-38.867996520996094-26.74 -39.69799652099609-27.65Q-40.5279965209961-28.56 -41.967996520996095-28.92L-41.967996520996095-28.92Q-42.467996520996095-29.06 -43.06799652099609-29.1Q-43.6679965209961-29.14 -44.147996520996095-29.14L-44.147996520996095-29.14L-52.40799652099609-29.14ZM-20.9379990234375 0.72L-20.9379990234375 0.72Q-23.747999023437497 0.72 -25.6879990234375-0.35Q-27.637999023437498-1.42 -28.627999023437496-3.19Q-29.627999023437496-4.97 -29.627999023437496-7.1L-29.627999023437496-7.1Q-29.627999023437496-8.98 -29.0079990234375-10.48Q-28.377999023437496-11.98 -27.087999023437497-13.07Q-25.7879990234375-14.16 -23.727999023437498-14.86L-23.727999023437498-14.86Q-22.167999023437496-15.36 -20.067999023437498-15.77Q-17.9679990234375-16.18 -15.507999023437499-16.52Q-13.047999023437498-16.87 -10.357999023437497-17.28L-10.357999023437497-17.28L-12.417999023437499-16.1Q-12.3979990234375-18.79 -13.617999023437498-20.06Q-14.847999023437499-21.34 -17.747999023437497-21.34L-17.747999023437497-21.34Q-19.497999023437497-21.34 -21.127999023437496-20.52Q-22.767999023437497-19.7 -23.407999023437497-17.71L-23.407999023437497-17.71L-28.6879990234375-19.37Q-27.727999023437498-22.66 -25.0279990234375-24.65Q-22.3279990234375-26.64 -17.747999023437497-26.64L-17.747999023437497-26.64Q-14.287999023437497-26.64 -11.667999023437499-25.51Q-9.037999023437497-24.38 -7.767999023437497-21.82L-7.767999023437497-21.82Q-7.067999023437498-20.45 -6.927999023437497-19.02Q-6.7779990234374985-17.59 -6.7779990234374985-15.91L-6.7779990234374985-15.91L-6.7779990234374985 0L-11.847999023437499 0L-11.847999023437499-5.62L-11.007999023437499-4.7Q-12.757999023437499-1.9 -15.097999023437499-0.59Q-17.4379990234375 0.72 -20.9379990234375 0.72ZM-19.7879990234375-3.89L-19.7879990234375-3.89Q-17.817999023437498-3.89 -16.4279990234375-4.58Q-15.037999023437497-5.28 -14.207999023437498-6.29Q-13.377999023437496-7.3 -13.087999023437497-8.18L-13.087999023437497-8.18Q-12.637999023437498-9.29 -12.5779990234375-10.72Q-12.517999023437497-12.14 -12.517999023437497-13.03L-12.517999023437497-13.03L-10.7379990234375-12.5Q-13.357999023437497-12.1 -15.227999023437498-11.78Q-17.0979990234375-11.47 -18.447999023437497-11.2Q-19.7879990234375-10.92 -20.817999023437498-10.58L-20.817999023437498-10.58Q-21.8279990234375-10.22 -22.5279990234375-9.74Q-23.2179990234375-9.26 -23.587999023437497-8.64Q-23.9679990234375-8.02 -23.9679990234375-7.18L-23.9679990234375-7.18Q-23.9679990234375-6.22 -23.487999023437496-5.48Q-23.0079990234375-4.75 -22.0779990234375-4.32Q-21.157999023437497-3.89 -19.7879990234375-3.89ZM 9.470000671386718 0.72L 9.470000671386718 0.72Q 4.670000671386719 0.72  1.6700006713867186-1.44Q-1.3299993286132819-3.6 -1.9799993286132818-7.51L-1.9799993286132818-7.51L 3.9200006713867186-8.42Q 4.380000671386718-6.5  5.940000671386718-5.4Q 7.500000671386719-4.3  9.880000671386718-4.3L 9.880000671386718-4.3Q 11.960000671386718-4.3  13.100000671386718-5.12Q 14.240000671386719-5.95  14.240000671386719-7.39L 14.240000671386719-7.39Q 14.240000671386719-8.28  13.820000671386717-8.82Q 13.400000671386719-9.36  11.990000671386719-9.86Q 10.570000671386719-10.37  7.6400006713867175-11.14L 7.6400006713867175-11.14Q 4.380000671386718-12  2.4600006713867186-13Q 0.5400006713867187-13.99 -0.2999993286132816-15.36Q-1.139999328613282-16.73 -1.139999328613282-18.67L-1.139999328613282-18.67Q-1.139999328613282-21.1  0.13000067138671856-22.9Q 1.4000006713867181-24.7  3.6800006713867184-25.67Q 5.960000671386718-26.64  9.06000067138672-26.64L 9.06000067138672-26.64Q 12.080000671386719-26.64  14.420000671386719-25.7Q 16.76000067138672-24.77  18.200000671386718-23.04Q 19.640000671386716-21.31  19.98000067138672-18.98L 19.98000067138672-18.98L 14.080000671386719-17.93Q 13.86000067138672-19.58  12.580000671386719-20.54Q 11.290000671386718-21.5  9.160000671386719-21.62L 9.160000671386719-21.62Q 7.120000671386718-21.74  5.870000671386718-21.01Q 4.620000671386718-20.28  4.620000671386718-18.96L 4.620000671386718-18.96Q 4.620000671386718-18.22  5.120000671386718-17.69Q 5.630000671386718-17.16  7.150000671386719-16.63Q 8.680000671386718-16.1  11.700000671386718-15.34L 11.700000671386718-15.34Q 14.800000671386718-14.54  16.66000067138672-13.52Q 18.52000067138672-12.5  19.34000067138672-11.09Q 20.170000671386717-9.67  20.170000671386717-7.66L 20.170000671386717-7.66Q 20.170000671386717-3.74  17.33000067138672-1.51Q 14.480000671386717 0.72  9.470000671386718 0.72ZM 35.462005065917964 0.72L 35.462005065917964 0.72Q 30.662005065917967 0.72  27.662005065917967-1.44Q 24.662005065917967-3.6  24.01200506591797-7.51L 24.01200506591797-7.51L 29.912005065917967-8.42Q 30.372005065917968-6.5  31.932005065917966-5.4Q 33.492005065917965-4.3  35.87200506591797-4.3L 35.87200506591797-4.3Q 37.952005065917966-4.3  39.09200506591797-5.12Q 40.23200506591797-5.95  40.23200506591797-7.39L 40.23200506591797-7.39Q 40.23200506591797-8.28  39.812005065917965-8.82Q 39.39200506591797-9.36  37.98200506591797-9.86Q 36.562005065917965-10.37  33.632005065917966-11.14L 33.632005065917966-11.14Q 30.372005065917968-12  28.452005065917966-13Q 26.532005065917968-13.99  25.692005065917968-15.36Q 24.852005065917965-16.73  24.852005065917965-18.67L 24.852005065917965-18.67Q 24.852005065917965-21.1  26.122005065917968-22.9Q 27.392005065917967-24.7  29.672005065917965-25.67Q 31.952005065917966-26.64  35.05200506591797-26.64L 35.05200506591797-26.64Q 38.07200506591796-26.64  40.41200506591797-25.7Q 42.75200506591797-24.77  44.19200506591797-23.04Q 45.632005065917966-21.31  45.97200506591797-18.98L 45.97200506591797-18.98L 40.07200506591796-17.93Q 39.852005065917965-19.58  38.57200506591796-20.54Q 37.282005065917964-21.5  35.15200506591797-21.62L 35.15200506591797-21.62Q 33.11200506591797-21.74  31.862005065917966-21.01Q 30.612005065917966-20.28  30.612005065917966-18.96L 30.612005065917966-18.96Q 30.612005065917966-18.22  31.112005065917966-17.69Q 31.622005065917968-17.16  33.14200506591797-16.63Q 34.672005065917965-16.1  37.69200506591797-15.34L 37.69200506591797-15.34Q 40.79200506591796-14.54  42.65200506591796-13.52Q 44.51200506591797-12.5  45.33200506591797-11.09Q 46.16200506591797-9.67  46.16200506591797-7.66L 46.16200506591797-7.66Q 46.16200506591797-3.74  43.32200506591796-1.51Q 40.47200506591797 0.72  35.462005065917964 0.72ZM 57.70400189208984-29.86L 51.92400189208985-29.86L 51.92400189208985-35.16L 57.70400189208984-35.16L 57.70400189208984-29.86ZM 57.70400189208984 0L 51.92400189208985 0L 51.92400189208985-25.92L 57.70400189208984-25.92L 57.70400189208984 0Z"></path><path d="M50 10L15 30v40l35 20l34.99-19.994L85 69.99V30L50 10z M50 17.699L74.89 31.92l-6.732 3.848L50 25.397L31.846 35.771  l-6.738-3.851L50 17.699z M64.795 41.546v13.059L53.369 48.08V35.02L64.795 41.546z M46.631 35.02v13.057l-11.423 6.527V41.546  L46.631 35.02z M46.631 80.377L21.735 66.152v-28.46l6.734 3.848v20.761L46.631 72.68V80.377z M38.571 60.377l11.426-6.529  l11.429 6.529L50 66.904L38.571 60.377z M78.265 66.152L53.369 80.377V72.68L71.53 62.305V41.54l6.734-3.848V66.152z" transform="matrix(1.5346450805664062, 0, 0, 1.5346450805664062, 59.692710876464844, 183.2677459716797)" fill="#3f78e0" data-uid="o_f1e1f4l37_9"></path><path text="n" fill="rgba(51, 63, 81, 1)" space="preserve" text-anchor="middle" offset="0.5" font-scale="contain" font-size="48" font-family="Manrope" transform="matrix(1.1962429285049438, 0, 0, 1.1962429285049438, 334.3138174137599, 363.53036739712843)" data-fl-textpath="" font-weight="700" font-style="normal" letter-spacing="0" path="M-101.71200000000002 0C-50.85600000000001 0 50.85600000000002 0 101.71200000000002 0" data-uid="o_f1e1f4l37_11" d="M 12.128 0L 6.277999999999999 0L 6.277999999999999-12.48Q 6.277999999999999-13.7  6.1080000000000005-15.19Q 5.937999999999999-16.68  5.327999999999999-18.06Q 4.718-19.44  3.507999999999999-20.33Q 2.2880000000000003-21.22  0.22799999999999976-21.22L 0.22799999999999976-21.22Q-0.8719999999999999-21.22 -1.952-20.86Q-3.032-20.5 -3.912000000000001-19.62Q-4.792-18.74 -5.312000000000001-17.22Q-5.8420000000000005-15.7 -5.8420000000000005-13.32L-5.8420000000000005-13.32L-9.272-14.78Q-9.272-18.1 -7.992000000000001-20.78Q-6.712-23.47 -4.212-25.07Q-1.7119999999999997-26.66  1.9280000000000008-26.66L 1.9280000000000008-26.66Q 4.808-26.66  6.687999999999999-25.7Q 8.558-24.74  9.658000000000001-23.26Q 10.768-21.77  11.288-20.09Q 11.817999999999998-18.41  11.977999999999998-16.91Q 12.128-15.41  12.128-14.47L 12.128-14.47L 12.128 0ZM-5.8420000000000005 0L-11.702 0L-11.702-25.92L-6.542-25.92L-6.542-17.88L-5.8420000000000005-17.88L-5.8420000000000005 0Z"></path></svg>